<?xml version="1.0" encoding="utf-8"?>
<!-- Generator: Adobe Illustrator 19.0.0, SVG Export Plug-In . SVG Version: 6.00 Build 0)  -->
<svg version="1.1"
	 id="svg5933" xmlns:svg="http://www.w3.org/2000/svg" xmlns:rdf="http://www.w3.org/1999/02/22-rdf-syntax-ns#" xmlns:dc="http://purl.org/dc/elements/1.1/" xmlns:sodipodi="http://sodipodi.sourceforge.net/DTD/sodipodi-0.dtd" xmlns:inkscape="http://www.inkscape.org/namespaces/inkscape" xmlns:cc="http://creativecommons.org/ns#" inkscape:export-ydpi="90" inkscape:export-xdpi="90" inkscape:export-filename="C:\Users\Administrator\Google Drive\Code\Trailblazer\img\screen4.png" sodipodi:docname="screen4.svg" inkscape:version="0.91 r13725"
	 xmlns="http://www.w3.org/2000/svg" xmlns:xlink="http://www.w3.org/1999/xlink" x="0px" y="0px" viewBox="160 -120 1280 800"
	 style="enable-background:new 160 -120 1280 800;" xml:space="preserve">
<style type="text/css">
	.st0{font-family:'CenturyGothic';}
	.st1{font-size:168.4028px;}
	.st2{filter:url(#filter4161);}
	.st3{fill:#FFBE00;}
	.st4{fill:#FFED00;}
	.st5{fill:#FFFFFF;}
</style>
<filter  style="color-interpolation-filters:sRGB" inkscape:label="Drop Shadow" id="filter4161">
	<feFlood  result="flood" id="feFlood4163" flood-color="rgb(0,0,0)" flood-opacity="1"></feFlood>
	<feComposite  in="flood" operator="in" result="composite1" id="feComposite4165" in2="SourceGraphic"></feComposite>
	<feGaussianBlur  stdDeviation="9" in="composite1" result="blur" id="feGaussianBlur4167"></feGaussianBlur>
	<feOffset  dy="0" dx="0" result="offset" id="feOffset4169"></feOffset>
	<feComposite  in="SourceGraphic" operator="over" result="composite2" id="feComposite4171" in2="offset"></feComposite>
</filter>
<image style="overflow:visible;" width="1366" height="707" xlink:href="1F720065.jpg"  transform="matrix(1.1315 0 0 1.1315 27.157 -120)">
</image>
<sodipodi:namedview  inkscape:cx="500.37079" showgrid="true" inkscape:cy="74.918505" inkscape:zoom="0.24748737" bordercolor="#666666" units="px" pagecolor="#ffffff" borderopacity="1.0" id="base" inkscape:snap-midpoints="true" inkscape:snap-smooth-nodes="true" inkscape:object-nodes="true" inkscape:object-paths="true" inkscape:snap-bbox-midpoints="true" inkscape:bbox-nodes="true" inkscape:bbox-paths="true" inkscape:snap-bbox="true" inkscape:window-maximized="1" inkscape:window-y="-8" inkscape:window-x="-8" inkscape:window-height="705" inkscape:window-width="1366" inkscape:current-layer="layer1" inkscape:document-units="px" inkscape:pageshadow="2" inkscape:pageopacity="0.0" inkscape:snap-intersection-paths="true" inkscape:snap-bbox-edge-midpoints="true">
	<inkscape:grid  type="xygrid" id="grid4155"></inkscape:grid>
</sodipodi:namedview>
<text transform="matrix(1 0 0 1 225.8092 324.618)" class="st0 st1">TR     ILBLAZER</text>
<g id="g4784" transform="matrix(0.34544163,0,0,0.34544163,30.801185,166.2691)" class="st2">
	<path id="path4142_1_" inkscape:connector-curvature="0" sodipodi:nodetypes="ccccccc" class="st3" d="M1374.6-22.1l-178.3,44.6
		v89.1L1374.6,67l178.3,44.6V22.4L1374.6-22.1z"/>
	<path id="path4142-1_1_" inkscape:connector-curvature="0" sodipodi:nodetypes="ccccccc" class="st4" d="M1374.6,67l-178.3,44.6
		v44.6l178.3-44.6l178.3,44.6v-44.6L1374.6,67z"/>
	<path id="path4142-1-5_1_" inkscape:connector-curvature="0" sodipodi:nodetypes="ccccccc" class="st3" d="M1374.6,111.6
		l-178.3,44.6v44.6l178.3-44.6l178.3,44.6v-44.6L1374.6,111.6z"/>
	<path id="path4142-1-6_1_" inkscape:connector-curvature="0" sodipodi:nodetypes="ccccccc" class="st3" d="M1374.6,289.9
		l-222.9,55.7v55.7l222.9-55.7l222.9,55.7v-55.7L1374.6,289.9z"/>
	<path id="path4142-1-5-3_1_" inkscape:connector-curvature="0" sodipodi:nodetypes="ccccccc" class="st3" d="M1374.6,200.7
		l-178.3,44.6v44.6l178.3-44.6l178.3,44.6v-44.6L1374.6,200.7z"/>
	<path id="path4142-1-6-9_1_" inkscape:connector-curvature="0" sodipodi:nodetypes="ccccccc" class="st3" d="M1374.6,401.3
		L1151.7,457v55.7l222.9-55.7l222.9,55.7V457L1374.6,401.3z"/>
	<path id="path4142-1-1_1_" inkscape:connector-curvature="0" sodipodi:nodetypes="ccccccc" class="st4" d="M1374.6,156.1
		l-178.3,44.6v44.6l178.3-44.6l178.3,44.6v-44.6L1374.6,156.1z"/>
	<path id="path4142-1-8_1_" inkscape:connector-curvature="0" sodipodi:nodetypes="ccccccc" class="st4" d="M1374.6,245.3
		l-178.3,44.6v44.6l178.3-44.6l178.3,44.6v-44.6L1374.6,245.3z"/>
	<path id="path4142-1-6-9-4_1_" inkscape:connector-curvature="0" sodipodi:nodetypes="ccccccc" class="st4" d="M1374.6,345.6
		l-222.9,55.7V457l222.9-55.7l222.9,55.7v-55.7L1374.6,345.6z"/>
	<path id="path4142-1-6-9-4-1_1_" inkscape:connector-curvature="0" sodipodi:nodetypes="ccccccc" class="st4" d="M1374.6,457
		l-222.9,55.7v55.7l222.9-55.7l222.9,55.7v-55.7L1374.6,457z"/>
</g>
<g>
	
		<image style="overflow:visible;opacity:0.75;" width="116" height="824" xlink:href="1F72006B.png"  transform="matrix(1 0 0 1 1336 -132)">
	</image>
	<g>
		<polygon class="st5" points="1440,-120 1384,-120 1348,680 1440,680 		"/>
	</g>
</g>
</svg>
